<?xml version="1.0" encoding="UTF-8" standalone="no"?>
<svg
   version="1.1"
   width="1000"
   height="1000"
   id="svg53"
   sodipodi:docname="favicon.svg"
   xml:space="preserve"
   inkscape:version="1.2.1 (9c6d41e410, 2022-07-14)"
   xmlns:inkscape="http://www.inkscape.org/namespaces/inkscape"
   xmlns:sodipodi="http://sodipodi.sourceforge.net/DTD/sodipodi-0.dtd"
   xmlns:xlink="http://www.w3.org/1999/xlink"
   xmlns="http://www.w3.org/2000/svg"
   xmlns:svg="http://www.w3.org/2000/svg"><defs
     id="defs57" /><sodipodi:namedview
     id="namedview55"
     pagecolor="#505050"
     bordercolor="#eeeeee"
     borderopacity="1"
     inkscape:showpageshadow="0"
     inkscape:pageopacity="0"
     inkscape:pagecheckerboard="0"
     inkscape:deskcolor="#505050"
     showgrid="false"
     showguides="true"
     inkscape:zoom="0.28779246"
     inkscape:cx="863.46946"
     inkscape:cy="618.50126"
     inkscape:window-width="1920"
     inkscape:window-height="1017"
     inkscape:window-x="-8"
     inkscape:window-y="-8"
     inkscape:window-maximized="1"
     inkscape:current-layer="g1381"><sodipodi:guide
       position="483.85562,734.18345"
       orientation="0,-1"
       id="guide347"
       inkscape:locked="false" /></sodipodi:namedview><g
     id="g345"
     transform="matrix(17,0,0,17,33.32067,11.754942)"><g
       id="g1381"
       transform="matrix(1.9125217,0,0,1.8381053,-27.105416,-22.498676)"><g
         transform="matrix(0.44817927,0,0,0.44817927,4.1642576,17.312495)"
         id="g51"
         style="fill:#55ff55;fill-opacity:1"><svg
           version="1.1"
           width="105"
           height="85"
           id="svg49"
           style="fill:#55ff55;fill-opacity:1"><svg
             width="105"
             height="85"
             viewBox="0 0 105 85"
             fill="none"
             version="1.1"
             id="svg47"
             style="fill:#55ff55;fill-opacity:1"><g
               clip-path="url(#clip0_13_3)"
               id="g40"
               style="fill:#55ff55;fill-opacity:1"><path
                 d="m 35.7256,0.185694 c -0.2017,0.130448 -0.7925,0.608405 -1.3104,1.057836 -0.5189,0.43419 -1.0946,0.8979 -1.2678,1.01407 -0.3817,0.25709 -0.7472,0.53758 -1.0945,0.83984 -0.4735,0.39134 -4.3933,2.92604 -4.523,2.92604 -0.02,-0.00142 -0.04,0.00126 -0.0589,0.00785 -0.0189,0.00658 -0.0362,0.01692 -0.051,0.03045 -0.0148,0.01353 -0.0267,0.02994 -0.035,0.04824 -0.0083,0.01829 -0.0128,0.03813 -0.0132,0.05823 -0.0027,0.03751 -0.0187,0.07279 -0.0451,0.09938 -0.0265,0.02659 -0.0616,0.04267 -0.0989,0.04533 -0.8083,0.42895 -1.5922,0.90289 -2.3481,1.41967 -1.1958,0.78269 -2.2326,1.43403 -2.3046,1.44831 -0.1545,0.06174 -0.2998,0.14471 -0.4317,0.24659 -0.2736,0.17425 -0.3456,0.36183 -0.3787,0.92747 -0.0422,0.3085 0.0131,0.6226 0.1581,0.8978 0.554,0.9225 1.0264,1.892 1.4117,2.8976 0,0.0723 0.0719,0.1304 0.1733,0.1304 0.0861,0 0.1155,0.0438 0.0719,0.0866 -0.0577,0.0581 0.0284,0.2752 0.1894,0.4923 0.1126,0.1472 0.2079,0.307 0.284,0.4761 0.485,0.9244 1.0389,1.8106 1.657,2.6509 0.0963,0.093 0.1702,0.207 0.2158,0.3332 0,0.1743 0.5909,0.7675 1.0804,1.116 0.6912,0.4637 1.282,0.3332 2.6217,-0.6085 0.98,-0.6808 0.9365,-0.6951 1.515,0.4495 0.2016,0.3913 0.5766,1.0864 0.8208,1.5234 0.2595,0.4342 0.5331,0.9522 0.6335,1.1589 0.0602,0.159 0.148,0.306 0.2594,0.4341 0.0436,0.0438 0.6334,1.1427 1.3104,2.4624 0.677,1.3197 1.354,2.6222 1.5272,2.8974 0.1582,0.2752 0.4318,0.7675 0.5909,1.0865 0.2511,0.4748 0.5299,0.9342 0.8351,1.3759 0.1972,0.226 0.3453,0.491 0.4347,0.778 0.0893,0.2869 0.118,0.5895 0.0841,0.8883 -0.0092,0.9472 -0.0959,1.8922 -0.2594,2.8251 -0.0436,0.2028 -0.1013,0.5504 -0.1439,0.797 -0.0436,0.3913 -0.8787,4.4619 -1.0226,4.998 -0.0284,0.1161 -0.2736,1.1007 -0.5473,2.1728 -0.4536,1.3754 -0.6108,2.8322 -0.4611,4.2734 0.072,0.3475 0.3456,0.5799 1.2385,1.1426 2.1609,1.2504 4.3925,2.3727 6.6836,3.3612 0.9648,0.3333 1.7289,0.159 3.4285,-0.7532 0.2229,-0.1188 0.4686,-0.188 0.7205,-0.2028 0.2107,-0.0166 0.4139,-0.0864 0.5908,-0.2028 0.5632,-1.0806 1.04,-2.2045 1.4259,-3.3612 0.3757,-1.0943 0.8083,-2.1679 1.2962,-3.2164 0.0382,-0.0314 0.0685,-0.0714 0.0886,-0.1167 0.02,-0.0453 0.0292,-0.0947 0.0269,-0.1442 0.053,-0.2605 0.149,-0.5103 0.2841,-0.7389 0.1296,-0.2261 0.2254,-0.4704 0.284,-0.7246 -0.0035,-0.0441 0.0092,-0.0878 0.0357,-0.123 0.0266,-0.0351 0.0651,-0.0591 0.1083,-0.0674 0.0861,0 0.1439,-0.0867 0.1439,-0.1905 0.4373,-1.1472 0.976,-2.2526 1.6096,-3.3031 0.0719,-0.0438 0.1297,-0.1304 0.1155,-0.1904 0.0703,-0.3462 0.2179,-0.6718 0.4317,-0.9522 0.1816,0.3033 0.322,0.6296 0.4176,0.9702 0.3598,1.0722 1.3539,3.7231 1.6853,4.5343 0.0892,0.1874 0.1477,0.388 0.1733,0.5942 -0.0284,0.058 0.0578,0.2171 0.1733,0.3618 0.182,0.2625 0.3228,0.5515 0.4175,0.857 0.2017,0.6227 1.3975,3.4335 1.6418,3.9115 0.0712,0.1136 0.1293,0.235 0.1733,0.3618 0.3957,0.9391 0.9141,1.821 1.5414,2.6224 0.8645,0.6084 1.2678,0.6369 2.9352,0.217 0.8644,-0.2171 1.7289,-0.4342 1.9306,-0.4637 1.6553,-0.2715 3.2649,-0.7737 4.7824,-1.492 0.2266,-0.3487 0.3467,-0.7565 0.3456,-1.1731 0.1003,-0.9855 0.1439,-7.7355 0.0719,-13.0525 -0.0435,-2.8565 -0.0284,-3.1869 0.2159,-3.6182 0.1153,-0.214 0.2554,-0.4135 0.4175,-0.5942 0.1013,-0.0724 0.1013,-0.1162 0,-0.1162 -0.1013,0 -0.1013,-0.0438 0,-0.1162 0.1246,-0.1099 0.2271,-0.2427 0.3021,-0.3913 0.6486,-1.1883 1.0803,-1.9415 1.9012,-3.3326 0.5189,-0.8837 1.0084,-1.6663 1.0661,-1.7387 0.2737,-0.319 2.3188,-3.5231 2.6653,-4.1429 0.3314,-0.637 0.4734,-0.7246 2.0168,-1.4483 1.8586,-0.8693 1.9732,-0.9855 3.1245,-3.2593 0.907,-1.7967 1.3833,-3.3326 1.1816,-3.7811 C 81.859,11.9808 80.7235,11.2081 79.5124,10.5711 79.1487,10.4321 78.7927,10.2732 78.4463,10.095 77.899,9.84838 76.6597,9.34182 75.6664,8.99427 74.8397,8.59589 73.9319,8.3973 73.0153,8.41439 c -1.0945,0.07236 -1.2536,0.17429 -2.1171,1.18836 -0.2411,0.31463 -0.5061,0.61005 -0.7925,0.88365 -0.0352,0.0174 -0.0647,0.0446 -0.0852,0.0784 -0.0204,0.0337 -0.0309,0.0725 -0.0303,0.112 -0.0198,0.117 -0.0693,0.2269 -0.1439,0.3189 -0.1894,0.2029 -1.1523,1.5359 -1.3975,1.9263 -0.1013,0.1447 -0.3314,0.5075 -0.5189,0.7827 -0.1732,0.2752 -0.6486,1.0284 -1.0415,1.6663 -0.3929,0.638 -0.7489,1.1883 -0.7925,1.2312 -0.1083,0.1457 -0.2033,0.3009 -0.284,0.4637 -0.1155,0.2171 -0.605,1.0284 -1.0804,1.8091 -0.4753,0.7808 -0.9468,1.5787 -1.0519,1.7815 -0.2016,0.4057 -0.303,0.5942 -1.4978,2.709 -0.3205,0.5165 -0.5998,1.0578 -0.8351,1.6187 0.0032,0.0383 -0.0086,0.0763 -0.0328,0.106 -0.0242,0.0297 -0.059,0.0487 -0.097,0.053 -0.1155,0 -0.23,0.3476 -0.4895,1.5502 -0.0861,0.3913 -0.2158,0.3047 -0.4317,-0.2752 C 60.166,26.0706 59.9785,25.5926 59.8923,25.3603 59.792,25.1137 59.703,24.8966 59.6907,24.8538 59.6784,24.8109 59.5609,24.5348 59.4312,24.2167 59.3015,23.912 59.186,23.6369 59.186,23.6083 59.137,23.4553 59.0791,23.3052 59.0127,23.1589 58.939,22.9793 58.8758,22.7956 58.8234,22.6086 58.6463,21.9207 58.405,21.2512 58.1028,20.6089 57.9243,20.4277 57.6914,20.3106 57.4401,20.2757 56.3313,20.1167 54.8619,19.9901 52.8593,19.8558 52.1246,19.7977 51.3756,19.7253 51.2024,19.6967 51.0443,19.6682 50.569,19.5949 50.1609,19.552 c -0.6912,-0.0866 -0.7925,-0.058 -1.1665,0.319 -0.2676,0.2828 -0.5041,0.5937 -0.7054,0.9275 -0.1001,0.202 -0.2156,0.3959 -0.3456,0.5798 -0.0436,0.0438 -0.3598,0.6808 -0.7205,1.4054 -0.1941,0.4782 -0.4456,0.9307 -0.749,1.3474 -0.0577,0 -0.1581,-0.1743 -0.2016,-0.4057 -0.1202,-0.3895 -0.2644,-0.7711 -0.4318,-1.1426 -0.1733,-0.4056 -0.284,-0.7827 -0.2301,-0.8255 0.0436,-0.0438 0,-0.0867 -0.0861,-0.0867 -0.0515,-0.006 -0.0986,-0.0321 -0.131,-0.0728 C 45.3609,21.5572 45.3457,21.5054 45.351,21.4535 45.3391,21.286 45.29,21.1233 45.2071,20.9775 45.1351,20.847 44.8037,20.0072 44.4723,19.1378 44.141,18.2542 43.767,17.3125 43.6515,17.0373 43.5638,16.8486 43.487,16.655 43.4214,16.4575 43.4072,16.3708 43.0616,15.5158 42.8164,14.934 42.0816,13.181 41.6925,12.2679 41.1017,10.8054 40.7229,9.89317 40.3385,8.93623 40.2372,8.70485 40.1359,8.45824 39.9342,7.9802 39.8055,7.61837 39.6615,7.25654 39.4741,6.76142 39.3737,6.53194 39.2733,6.28533 39.1436,5.93781 39.0896,5.73499 39.0461,5.53218 38.816,4.78281 38.585,4.06868 38.3549,3.34407 38.0661,2.38807 37.9364,1.92436 37.8347,1.50942 37.6424,1.12248 37.3733,0.791731 37.1042,0.460984 36.7651,0.194758 36.3808,0.0123907 36.1487,-0.0117428 35.9158,0.0498595 35.7256,0.185694 Z"
                 fill="#2c2e3e"
                 id="path36"
                 style="fill:#55ff55;fill-opacity:1" /></g><defs
               id="defs45"><clipPath
                 id="clip0_13_3"><rect
                   width="105"
                   height="85"
                   fill="#ffffff"
                   id="rect42"
                   x="0"
                   y="0" /></clipPath></defs></svg></svg></g><path
         fill="#444444"
         d="m 38.553958,21.785168 1.52386,0.746895 c 0.821664,-0.06977 1.924668,-0.552862 2.230862,-1.820236 0.400808,-1.299751 -0.622614,-2.746334 0.119265,-4.902629 0,0 -3.311517,1.133077 -4.120651,2.783925 -0.746895,1.523861 -0.423158,2.470007 0.02506,3.162178 z"
         id="path330"
         inkscape:transform-center-x="-4.3434077"
         style="fill:#55ff55;fill-opacity:1" /></g><path
       style="fill:#55ff55;fill-opacity:0;stroke-width:3.47473"
       d="m 582.10691,886.46134 c -13.27978,-13.27978 -45.2205,-81.90621 -78.22074,-168.0617 -11.13886,-29.08078 -15.2922,-33.90926 -19.03208,-22.12591 -1.14177,3.59732 -8.67435,18.86641 -16.73912,33.93126 -14.52724,27.13671 -30.36452,62.28485 -44.07641,97.82021 -15.4756,40.10606 -18.31573,43.53499 -44.54578,53.78004 -13.32385,5.20413 -27.73491,9.46203 -32.02458,9.46203 -9.56379,0 -97.64026,-41.96507 -113.55773,-54.1059 -10.19869,-7.77894 -11.52799,-10.69375 -11.52799,-25.2779 0,-9.06682 3.83151,-31.26893 8.51447,-49.33802 14.10284,-54.41554 26.23279,-119.36821 26.23279,-140.46963 0,-13.84727 -1.97781,-22.67276 -6.52104,-29.09861 -3.58657,-5.07275 -21.31658,-35.80486 -39.40003,-68.29355 -50.42899,-90.60066 -55.34264,-99.0297 -57.72866,-99.0297 -1.2206,0 -10.33879,4.25111 -20.26264,9.44691 -25.65278,13.43095 -32.62885,10.17633 -57.514032,-26.83261 -24.868076,-36.9835 -48.011919,-82.39562 -47.807079,-93.80554 0.135132,-7.52706 9.059036,-14.02171 66.841737,-48.64617 36.677184,-21.97764 82.946054,-52.07745 102.819714,-66.88848 19.87366,-14.81102 37.56951,-26.92912 39.32411,-26.92912 9.06128,0 20.2263,19.04104 30.43751,51.90874 6.11316,19.67693 26.80964,72.72858 45.9922,117.89257 34.65468,81.59201 56.73336,134.33424 65.28477,155.95427 2.4567,6.21107 5.60153,11.29286 6.98854,11.29286 1.38704,0 9.26133,-12.5216 17.49844,-27.82578 8.23712,-15.3042 17.08148,-29.5727 19.6541,-31.7078 3.44786,-2.86145 18.14828,-2.80121 55.91793,0.22912 80.44426,6.45422 70.52638,0.78791 90.39236,51.64314 9.40776,24.08298 18.85307,44.36996 20.98957,45.0821 2.13654,0.71218 4.98311,-3.11617 6.32571,-8.50745 6.70625,-26.92968 110.84679,-192.04313 144.01607,-228.33562 l 18.48141,-20.22163 19.29463,1.78731 c 10.61203,0.98302 23.07649,2.96362 27.69882,4.40134 7.37413,2.29363 8.03867,1.80026 5.42186,-4.02528 -6.75685,-15.04209 -5.80992,-44.54551 2.10912,-65.71096 11.6134,-31.03967 35.37376,-52.10067 88.76893,-78.68414 23.67429,-11.78654 43.72175,-20.75246 44.54996,-19.92426 0.8282,0.8282 -0.11676,8.49974 -2.10023,17.04787 -3.38261,14.57908 -2.68961,39.06695 2.67508,94.52504 4.20397,43.45919 -13.3074,75.30658 -47.71358,86.77532 l -15.15665,5.05221 15.06519,9.96969 c 13.71763,9.0779 14.90057,10.98428 13.2245,21.31251 -2.22184,13.6918 -20.07749,51.90804 -30.36101,64.9814 -4.08513,5.19341 -17.9832,14.75832 -30.88458,21.25537 -22.70863,11.43586 -24.40294,13.23319 -53.09868,56.32631 -16.30286,24.48244 -39.2028,60.46952 -50.88879,79.97128 l -21.24723,35.45774 v 117.63477 c 0,88.95403 -1.05895,118.93181 -4.3434,122.95468 -6.11601,7.49106 -29.27252,15.33459 -75.23297,25.48277 -48.86688,10.78996 -54.17303,10.82836 -64.53449,0.4669 z"
       id="path1452"
       transform="matrix(0.05882353,0,0,0.05882353,-1.9600394,-0.69146718)" /><path
       style="fill:#55ff55;fill-opacity:0;stroke-width:3.47473"
       d="m 585.13044,888.26535 c -14.17684,-11.16857 -43.8336,-72.6681 -77.73553,-161.20099 -7.13987,-18.64538 -14.25614,-34.68844 -15.81393,-35.65118 -3.41798,-2.11243 -35.2692,59.71664 -55.51966,107.77384 -30.57068,72.54843 -31.7188,74.69088 -41.31248,77.09122 -4.97984,1.24597 -15.91699,5.2975 -24.30484,9.00347 -9.85175,4.35272 -19.35637,6.0718 -26.84852,4.85599 -18.40721,-2.98708 -112.12272,-50.62005 -118.37939,-60.16894 -6.85114,-10.45615 -5.28748,-23.21879 10.94019,-89.29418 14.86649,-60.53296 23.85049,-114.96594 21.46014,-130.02446 -0.98881,-6.22925 -4.83936,-15.61101 -8.55677,-20.84836 -3.71741,-5.23738 -25.07049,-42.35865 -47.4513,-82.49174 -22.38081,-40.13308 -42.77201,-75.14126 -45.31378,-77.79595 -3.92715,-4.10161 -6.9721,-3.44911 -20.26903,4.3434 -21.47967,12.58794 -30.44732,11.85104 -44.029297,-3.61797 C 68.861012,403.88993 24.976922,325.16785 26.783864,313.25738 c 0.648187,-4.27253 13.548257,-14.1913 35.761208,-27.49652 70.807458,-42.41261 108.526848,-66.76359 139.343598,-89.9578 17.3949,-13.09226 33.14951,-23.80411 35.01025,-23.80411 8.60353,0 20.07851,19.76885 30.57556,52.67495 6.30403,19.76181 24.74864,67.2031 40.98805,105.42509 46.57591,109.62376 72.01999,171.72691 72.01999,175.78421 0,9.2648 9.78358,-1.09492 21.86826,-23.15603 21.6252,-39.47769 17.93441,-37.87113 76.00307,-33.08364 27.39248,2.25839 55.06614,5.0287 61.49699,6.15624 12.78511,2.24164 12.15785,1.1638 35.52323,61.04146 12.39519,31.76473 18.29934,37.29546 21.69404,20.32197 6.13591,-30.6796 137.54109,-232.23304 158.838,-243.63081 8.85368,-4.73834 30.38416,-3.96951 46.13422,1.6474 12.0762,4.30671 13.06382,4.21433 10.91603,-1.0212 -7.72745,-18.8365 -9.04878,-30.67166 -5.43392,-48.67135 7.42945,-36.99398 33.17224,-66.70828 79.33116,-91.57017 27.6395,-14.88705 60.01784,-28.07433 59.98917,-24.43282 -0.0111,1.40544 -1.57634,11.93711 -3.47841,23.4037 -2.60181,15.6853 -2.10881,31.40097 1.99071,63.45967 4.93828,38.61768 4.94123,44.35788 0.0313,61.24697 -6.13081,21.0892 -24.04358,40.03112 -45.03402,47.62137 -6.90796,2.49795 -12.5006,5.40034 -12.42809,6.44974 0.0726,1.04941 6.35549,6.21337 13.96211,11.47548 15.43592,10.67825 15.59371,13.85293 2.19575,44.1765 -15.87585,35.93169 -25.05948,46.61752 -50.7418,59.04183 -23.70629,11.46838 -25.0696,12.85426 -51.15506,52.00271 -14.73969,22.12119 -37.71496,58.20205 -51.05603,80.17969 l -24.25651,39.95935 0.75673,90.05417 c 0.41616,49.52975 -0.33184,103.96711 -1.66196,120.97183 -2.95453,37.76812 -2.50594,37.37919 -59.37359,51.47918 -60.31416,14.95456 -70.53847,15.8656 -81.46343,7.25891 z"
       id="path3133"
       transform="matrix(0.05882353,0,0,0.05882353,-1.9600394,-0.69146718)" /><path
       style="fill:#55ff55;fill-opacity:0;stroke-width:3.47473"
       d="m 585.13044,888.26535 c -14.17684,-11.16857 -43.8336,-72.6681 -77.73553,-161.20099 -7.13987,-18.64538 -14.25614,-34.68844 -15.81393,-35.65118 -3.41798,-2.11243 -35.2692,59.71664 -55.51966,107.77384 -30.57068,72.54843 -31.7188,74.69088 -41.31248,77.09122 -4.97984,1.24597 -15.91699,5.2975 -24.30484,9.00347 -9.85175,4.35272 -19.35637,6.0718 -26.84852,4.85599 -18.40721,-2.98708 -112.12272,-50.62005 -118.37939,-60.16894 -6.85114,-10.45615 -5.28748,-23.21879 10.94019,-89.29418 14.86649,-60.53296 23.85049,-114.96594 21.46014,-130.02446 -0.98881,-6.22925 -4.83936,-15.61101 -8.55677,-20.84836 -3.71741,-5.23738 -25.07049,-42.35865 -47.4513,-82.49174 -22.38081,-40.13308 -42.77201,-75.14126 -45.31378,-77.79595 -3.92715,-4.10161 -6.9721,-3.44911 -20.26903,4.3434 -21.47967,12.58794 -30.44732,11.85104 -44.029297,-3.61797 C 68.861012,403.88993 24.976922,325.16785 26.783864,313.25738 c 0.648187,-4.27253 13.548257,-14.1913 35.761208,-27.49652 70.807458,-42.41261 108.526848,-66.76359 139.343598,-89.9578 17.3949,-13.09226 33.14951,-23.80411 35.01025,-23.80411 8.60353,0 20.07851,19.76885 30.57556,52.67495 6.30403,19.76181 24.74864,67.2031 40.98805,105.42509 46.57591,109.62376 72.01999,171.72691 72.01999,175.78421 0,9.2648 9.78358,-1.09492 21.86826,-23.15603 21.6252,-39.47769 17.93441,-37.87113 76.00307,-33.08364 27.39248,2.25839 55.06614,5.0287 61.49699,6.15624 12.78511,2.24164 12.15785,1.1638 35.52323,61.04146 12.39519,31.76473 18.29934,37.29546 21.69404,20.32197 6.13591,-30.6796 137.54109,-232.23304 158.838,-243.63081 8.85368,-4.73834 30.38416,-3.96951 46.13422,1.6474 12.0762,4.30671 13.06382,4.21433 10.91603,-1.0212 -7.72745,-18.8365 -9.04878,-30.67166 -5.43392,-48.67135 7.42945,-36.99398 33.17224,-66.70828 79.33116,-91.57017 27.6395,-14.88705 60.01784,-28.07433 59.98917,-24.43282 -0.0111,1.40544 -1.57634,11.93711 -3.47841,23.4037 -2.60181,15.6853 -2.10881,31.40097 1.99071,63.45967 4.93828,38.61768 4.94123,44.35788 0.0313,61.24697 -6.13081,21.0892 -24.04358,40.03112 -45.03402,47.62137 -6.90796,2.49795 -12.5006,5.40034 -12.42809,6.44974 0.0726,1.04941 6.35549,6.21337 13.96211,11.47548 15.43592,10.67825 15.59371,13.85293 2.19575,44.1765 -15.87585,35.93169 -25.05948,46.61752 -50.7418,59.04183 -23.70629,11.46838 -25.0696,12.85426 -51.15506,52.00271 -14.73969,22.12119 -37.71496,58.20205 -51.05603,80.17969 l -24.25651,39.95935 0.75673,90.05417 c 0.41616,49.52975 -0.33184,103.96711 -1.66196,120.97183 -2.95453,37.76812 -2.50594,37.37919 -59.37359,51.47918 -60.31416,14.95456 -70.53847,15.8656 -81.46343,7.25891 z"
       id="path3135"
       transform="matrix(0.05882353,0,0,0.05882353,-1.9600394,-0.69146718)" /><path
       style="fill:#55ff55;fill-opacity:0;stroke-width:3.47473"
       d="m 585.13044,888.26535 c -14.17684,-11.16857 -43.8336,-72.6681 -77.73553,-161.20099 -7.13987,-18.64538 -14.25614,-34.68844 -15.81393,-35.65118 -3.41798,-2.11243 -35.2692,59.71664 -55.51966,107.77384 -30.57068,72.54843 -31.7188,74.69088 -41.31248,77.09122 -4.97984,1.24597 -15.91699,5.2975 -24.30484,9.00347 -9.85175,4.35272 -19.35637,6.0718 -26.84852,4.85599 -18.40721,-2.98708 -112.12272,-50.62005 -118.37939,-60.16894 -6.85114,-10.45615 -5.28748,-23.21879 10.94019,-89.29418 14.86649,-60.53296 23.85049,-114.96594 21.46014,-130.02446 -0.98881,-6.22925 -4.83936,-15.61101 -8.55677,-20.84836 -3.71741,-5.23738 -25.07049,-42.35865 -47.4513,-82.49174 -22.38081,-40.13308 -42.77201,-75.14126 -45.31378,-77.79595 -3.92715,-4.10161 -6.9721,-3.44911 -20.26903,4.3434 -21.47967,12.58794 -30.44732,11.85104 -44.029297,-3.61797 C 68.861012,403.88993 24.976922,325.16785 26.783864,313.25738 c 0.648187,-4.27253 13.548257,-14.1913 35.761208,-27.49652 70.807458,-42.41261 108.526848,-66.76359 139.343598,-89.9578 17.3949,-13.09226 33.14951,-23.80411 35.01025,-23.80411 8.60353,0 20.07851,19.76885 30.57556,52.67495 6.30403,19.76181 24.74864,67.2031 40.98805,105.42509 46.57591,109.62376 72.01999,171.72691 72.01999,175.78421 0,9.2648 9.78358,-1.09492 21.86826,-23.15603 21.6252,-39.47769 17.93441,-37.87113 76.00307,-33.08364 27.39248,2.25839 55.06614,5.0287 61.49699,6.15624 12.78511,2.24164 12.15785,1.1638 35.52323,61.04146 12.39519,31.76473 18.29934,37.29546 21.69404,20.32197 6.13591,-30.6796 137.54109,-232.23304 158.838,-243.63081 8.85368,-4.73834 30.38416,-3.96951 46.13422,1.6474 12.0762,4.30671 13.06382,4.21433 10.91603,-1.0212 -7.72745,-18.8365 -9.04878,-30.67166 -5.43392,-48.67135 7.42945,-36.99398 33.17224,-66.70828 79.33116,-91.57017 27.6395,-14.88705 60.01784,-28.07433 59.98917,-24.43282 -0.0111,1.40544 -1.57634,11.93711 -3.47841,23.4037 -2.60181,15.6853 -2.10881,31.40097 1.99071,63.45967 4.93828,38.61768 4.94123,44.35788 0.0313,61.24697 -6.13081,21.0892 -24.04358,40.03112 -45.03402,47.62137 -6.90796,2.49795 -12.5006,5.40034 -12.42809,6.44974 0.0726,1.04941 6.35549,6.21337 13.96211,11.47548 15.43592,10.67825 15.59371,13.85293 2.19575,44.1765 -15.87585,35.93169 -25.05948,46.61752 -50.7418,59.04183 -23.70629,11.46838 -25.0696,12.85426 -51.15506,52.00271 -14.73969,22.12119 -37.71496,58.20205 -51.05603,80.17969 l -24.25651,39.95935 0.75673,90.05417 c 0.41616,49.52975 -0.33184,103.96711 -1.66196,120.97183 -2.95453,37.76812 -2.50594,37.37919 -59.37359,51.47918 -60.31416,14.95456 -70.53847,15.8656 -81.46343,7.25891 z"
       id="path3137"
       transform="matrix(0.05882353,0,0,0.05882353,-1.9600394,-0.69146718)" /><path
       style="fill:#55ff55;fill-opacity:0;stroke-width:3.47473"
       d="m 585.13044,888.26535 c -14.17684,-11.16857 -43.8336,-72.6681 -77.73553,-161.20099 -7.13987,-18.64538 -14.25614,-34.68844 -15.81393,-35.65118 -3.41798,-2.11243 -35.2692,59.71664 -55.51966,107.77384 -30.57068,72.54843 -31.7188,74.69088 -41.31248,77.09122 -4.97984,1.24597 -15.91699,5.2975 -24.30484,9.00347 -9.85175,4.35272 -19.35637,6.0718 -26.84852,4.85599 -18.40721,-2.98708 -112.12272,-50.62005 -118.37939,-60.16894 -6.85114,-10.45615 -5.28748,-23.21879 10.94019,-89.29418 14.86649,-60.53296 23.85049,-114.96594 21.46014,-130.02446 -0.98881,-6.22925 -4.83936,-15.61101 -8.55677,-20.84836 -3.71741,-5.23738 -25.07049,-42.35865 -47.4513,-82.49174 -22.38081,-40.13308 -42.77201,-75.14126 -45.31378,-77.79595 -3.92715,-4.10161 -6.9721,-3.44911 -20.26903,4.3434 -21.47967,12.58794 -30.44732,11.85104 -44.029297,-3.61797 C 68.861012,403.88993 24.976922,325.16785 26.783864,313.25738 c 0.648187,-4.27253 13.548257,-14.1913 35.761208,-27.49652 70.807458,-42.41261 108.526848,-66.76359 139.343598,-89.9578 17.3949,-13.09226 33.14951,-23.80411 35.01025,-23.80411 8.60353,0 20.07851,19.76885 30.57556,52.67495 6.30403,19.76181 24.74864,67.2031 40.98805,105.42509 46.57591,109.62376 72.01999,171.72691 72.01999,175.78421 0,9.2648 9.78358,-1.09492 21.86826,-23.15603 21.6252,-39.47769 17.93441,-37.87113 76.00307,-33.08364 27.39248,2.25839 55.06614,5.0287 61.49699,6.15624 12.78511,2.24164 12.15785,1.1638 35.52323,61.04146 12.39519,31.76473 18.29934,37.29546 21.69404,20.32197 6.13591,-30.6796 137.54109,-232.23304 158.838,-243.63081 8.85368,-4.73834 30.38416,-3.96951 46.13422,1.6474 12.0762,4.30671 13.06382,4.21433 10.91603,-1.0212 -7.72745,-18.8365 -9.04878,-30.67166 -5.43392,-48.67135 7.42945,-36.99398 33.17224,-66.70828 79.33116,-91.57017 27.6395,-14.88705 60.01784,-28.07433 59.98917,-24.43282 -0.0111,1.40544 -1.57634,11.93711 -3.47841,23.4037 -2.60181,15.6853 -2.10881,31.40097 1.99071,63.45967 4.93828,38.61768 4.94123,44.35788 0.0313,61.24697 -6.13081,21.0892 -24.04358,40.03112 -45.03402,47.62137 -6.90796,2.49795 -12.5006,5.40034 -12.42809,6.44974 0.0726,1.04941 6.35549,6.21337 13.96211,11.47548 15.43592,10.67825 15.59371,13.85293 2.19575,44.1765 -15.87585,35.93169 -25.05948,46.61752 -50.7418,59.04183 -23.70629,11.46838 -25.0696,12.85426 -51.15506,52.00271 -14.73969,22.12119 -37.71496,58.20205 -51.05603,80.17969 l -24.25651,39.95935 0.75673,90.05417 c 0.41616,49.52975 -0.33184,103.96711 -1.66196,120.97183 -2.95453,37.76812 -2.50594,37.37919 -59.37359,51.47918 -60.31416,14.95456 -70.53847,15.8656 -81.46343,7.25891 z"
       id="path3139"
       transform="matrix(0.05882353,0,0,0.05882353,-1.9600394,-0.69146718)" /><path
       style="fill:#55ff55;fill-opacity:0;stroke-width:3.47473"
       d="m 585.13044,888.26535 c -14.17684,-11.16857 -43.8336,-72.6681 -77.73553,-161.20099 -7.13987,-18.64538 -14.25614,-34.68844 -15.81393,-35.65118 -3.41798,-2.11243 -35.2692,59.71664 -55.51966,107.77384 -30.57068,72.54843 -31.7188,74.69088 -41.31248,77.09122 -4.97984,1.24597 -15.91699,5.2975 -24.30484,9.00347 -9.85175,4.35272 -19.35637,6.0718 -26.84852,4.85599 -18.40721,-2.98708 -112.12272,-50.62005 -118.37939,-60.16894 -6.85114,-10.45615 -5.28748,-23.21879 10.94019,-89.29418 14.86649,-60.53296 23.85049,-114.96594 21.46014,-130.02446 -0.98881,-6.22925 -4.83936,-15.61101 -8.55677,-20.84836 -3.71741,-5.23738 -25.07049,-42.35865 -47.4513,-82.49174 -22.38081,-40.13308 -42.77201,-75.14126 -45.31378,-77.79595 -3.92715,-4.10161 -6.9721,-3.44911 -20.26903,4.3434 -21.47967,12.58794 -30.44732,11.85104 -44.029297,-3.61797 C 68.861012,403.88993 24.976922,325.16785 26.783864,313.25738 c 0.648187,-4.27253 13.548257,-14.1913 35.761208,-27.49652 70.807458,-42.41261 108.526848,-66.76359 139.343598,-89.9578 17.3949,-13.09226 33.14951,-23.80411 35.01025,-23.80411 8.60353,0 20.07851,19.76885 30.57556,52.67495 6.30403,19.76181 24.74864,67.2031 40.98805,105.42509 46.57591,109.62376 72.01999,171.72691 72.01999,175.78421 0,9.2648 9.78358,-1.09492 21.86826,-23.15603 21.6252,-39.47769 17.93441,-37.87113 76.00307,-33.08364 27.39248,2.25839 55.06614,5.0287 61.49699,6.15624 12.78511,2.24164 12.15785,1.1638 35.52323,61.04146 12.39519,31.76473 18.29934,37.29546 21.69404,20.32197 6.13591,-30.6796 137.54109,-232.23304 158.838,-243.63081 8.85368,-4.73834 30.38416,-3.96951 46.13422,1.6474 12.0762,4.30671 13.06382,4.21433 10.91603,-1.0212 -7.72745,-18.8365 -9.04878,-30.67166 -5.43392,-48.67135 7.42945,-36.99398 33.17224,-66.70828 79.33116,-91.57017 27.6395,-14.88705 60.01784,-28.07433 59.98917,-24.43282 -0.0111,1.40544 -1.57634,11.93711 -3.47841,23.4037 -2.60181,15.6853 -2.10881,31.40097 1.99071,63.45967 4.93828,38.61768 4.94123,44.35788 0.0313,61.24697 -6.13081,21.0892 -24.04358,40.03112 -45.03402,47.62137 -6.90796,2.49795 -12.5006,5.40034 -12.42809,6.44974 0.0726,1.04941 6.35549,6.21337 13.96211,11.47548 15.43592,10.67825 15.59371,13.85293 2.19575,44.1765 -15.87585,35.93169 -25.05948,46.61752 -50.7418,59.04183 -23.70629,11.46838 -25.0696,12.85426 -51.15506,52.00271 -14.73969,22.12119 -37.71496,58.20205 -51.05603,80.17969 l -24.25651,39.95935 0.75673,90.05417 c 0.41616,49.52975 -0.33184,103.96711 -1.66196,120.97183 -2.95453,37.76812 -2.50594,37.37919 -59.37359,51.47918 -60.31416,14.95456 -70.53847,15.8656 -81.46343,7.25891 z"
       id="path3141"
       transform="matrix(0.05882353,0,0,0.05882353,-1.9600394,-0.69146718)" /><path
       style="fill:#55ff55;fill-opacity:0;stroke-width:1.73736"
       d="m 588.31496,892.64307 c -3.22477,-1.58866 -8.53917,-6.45719 -11.80979,-10.81896 -7.00837,-9.34653 -28.32854,-52.37528 -38.79346,-78.29368 -4.05108,-10.03327 -8.8351,-20.31754 -10.63117,-22.85391 -1.79605,-2.53638 -3.26557,-5.69145 -3.26557,-7.01125 0,-1.31983 -4.18377,-12.92633 -9.29729,-25.79225 -5.11352,-12.86594 -12.21053,-31.01529 -15.77114,-40.3319 -3.56062,-9.31661 -7.15027,-16.93929 -7.97703,-16.93929 -1.60515,0 -10.07212,15.60851 -24.50363,45.17144 -4.89785,10.03327 -9.58925,18.50292 -10.42531,18.82143 -0.83607,0.31853 -1.52012,1.34826 -1.52012,2.28832 0,0.94005 -5.36868,13.97027 -11.93039,28.95605 -6.5617,14.98577 -14.81885,35.06499 -18.34919,44.62049 -3.53036,9.5555 -9.30375,23.21883 -12.82975,30.36298 -5.20062,10.5371 -7.39439,13.27534 -11.62032,14.50437 -2.86515,0.83329 -9.11844,3.09487 -13.89619,5.02574 -33.6742,13.60904 -36.98485,14.05261 -54.43062,7.29272 -21.43205,-8.30451 -94.95756,-45.6633 -102.38956,-52.02482 l -7.36063,-6.30044 v -17.13533 c 0,-14.46755 1.11377,-21.41156 7.15374,-44.60171 21.03744,-80.77185 32.1641,-146.17534 27.58445,-162.14365 -0.91641,-3.19531 -4.6762,-10.16352 -8.3551,-15.48491 -6.30899,-9.12571 -23.03707,-38.14679 -37.62283,-65.27085 -22.84694,-42.48677 -55.67499,-98.16102 -57.88016,-98.16102 -1.40308,0 -8.90223,3.89182 -16.66477,8.64846 -18.39794,11.27371 -23.05411,12.17135 -32.97533,6.35713 -4.23571,-2.48229 -9.542767,-6.80218 -11.793465,-9.59973 -13.428517,-16.69128 -37.970761,-55.55709 -37.970761,-60.13156 0,-1.27476 -0.721443,-2.57832 -1.603209,-2.89685 -0.881765,-0.31851 -7.179978,-11.47711 -13.996028,-24.79688 -11.013126,-21.5216 -12.267559,-24.95916 -11.267704,-30.87725 0.660824,-3.91138 2.672491,-7.74796 4.874871,-9.29718 7.074164,-4.97619 60.765588,-37.4543 67.874419,-41.05744 3.908977,-1.98128 7.498137,-4.13485 7.975907,-4.7857 0.47778,-0.65085 7.905,-5.39165 16.50495,-10.53511 35.86929,-21.45271 57.70187,-36.48525 92.62498,-63.77572 8.89954,-6.9545 17.57763,-12.64454 19.28466,-12.64454 5.36715,0 16.60134,9.57672 20.57757,17.54162 2.10051,4.20758 8.81766,23.28641 14.92702,42.3974 7.50619,23.48051 19.70417,54.74575 37.61921,96.42365 30.05908,69.93005 59.06608,140.27877 59.06608,143.24901 0,1.09701 0.97726,2.97171 2.1717,4.16601 1.19444,1.19432 4.62272,8.97336 7.61841,17.28676 3.19911,8.87795 6.41804,15.1153 7.8006,15.1153 1.29465,0 6.49831,-7.81813 11.5637,-17.37363 11.58487,-21.8541 23.59952,-39.70482 29.18869,-43.36698 3.69657,-2.42209 6.21859,-2.56752 17.72053,-1.02188 7.37582,0.99117 28.65593,2.97669 47.28915,4.41228 41.50484,3.19772 49.67319,4.11095 56.93689,6.36557 6.26365,1.94422 7.83018,4.74377 15.89104,28.39892 7.94465,23.31406 25.16329,63.41376 27.2296,63.41376 1.07117,0 3.23954,-5.23536 4.81861,-11.63413 1.57906,-6.39878 3.54091,-12.06693 4.35966,-12.59589 0.81876,-0.52895 3.26247,-4.47991 5.43047,-8.77988 17.99038,-35.68193 82.71636,-139.14892 111.79973,-178.71622 17.61546,-23.96545 34.12963,-42.10196 40.9287,-44.9495 8.47281,-3.54853 32.54726,-2.10282 45.03893,2.70467 8.07801,3.10887 9.12463,3.20261 8.17671,0.73235 -5.5994,-14.5918 -6.51132,-20.37977 -5.74647,-36.47239 2.26544,-47.66449 28.65357,-79.34261 92.54777,-111.10074 22.90239,-11.38346 49.16984,-22.29164 50.49304,-20.96843 0.4641,0.46409 -0.41768,5.45049 -1.95952,11.08088 -4.84891,17.70706 -5.18791,48.30064 -0.8612,77.72154 2.08583,14.18325 3.77027,31.77405 3.74321,39.09067 -0.12735,34.44309 -17.60481,60.43507 -48.29555,71.82387 -5.53818,2.05511 -10.7014,4.27688 -11.47379,4.93723 -0.7724,0.66038 2.35485,3.62362 6.94945,6.58501 4.59459,2.96139 10.84603,7.67449 13.89206,10.47357 l 5.53824,5.08923 -2.57546,11.05525 c -3.04576,13.07401 -16.33325,41.59432 -27.14566,58.26548 -8.25411,12.72662 -11.69039,15.17413 -43.01582,30.63828 l -14.75166,7.28231 -25.05967,37.35331 c -21.99545,32.78585 -67.92112,106.41045 -67.92112,108.88607 0,0.49504 -1.75908,3.36623 -3.90906,6.38038 l -3.90907,5.48028 -0.86868,118.14069 c -0.74035,100.68629 -1.25626,118.91075 -3.492,123.35278 -4.35828,8.65918 -27.97935,16.42297 -92.06297,30.25933 -28.45339,6.1434 -34.87508,6.49838 -43.21653,2.38901 z"
       id="path3143"
       transform="matrix(0.05882353,0,0,0.05882353,-1.9600394,-0.69146718)" /><path
       style="fill:#55ff55;fill-opacity:0;stroke-width:1.73736"
       d="m 588.31496,892.64307 c -3.22477,-1.58866 -8.53917,-6.45719 -11.80979,-10.81896 -7.00837,-9.34653 -28.32854,-52.37528 -38.79346,-78.29368 -4.05108,-10.03327 -8.8351,-20.31754 -10.63117,-22.85391 -1.79605,-2.53638 -3.26557,-5.69145 -3.26557,-7.01125 0,-1.31983 -4.18377,-12.92633 -9.29729,-25.79225 -5.11352,-12.86594 -12.21053,-31.01529 -15.77114,-40.3319 -3.56062,-9.31661 -7.15027,-16.93929 -7.97703,-16.93929 -1.60515,0 -10.07212,15.60851 -24.50363,45.17144 -4.89785,10.03327 -9.58925,18.50292 -10.42531,18.82143 -0.83607,0.31853 -1.52012,1.34826 -1.52012,2.28832 0,0.94005 -5.36868,13.97027 -11.93039,28.95605 -6.5617,14.98577 -14.81885,35.06499 -18.34919,44.62049 -3.53036,9.5555 -9.30375,23.21883 -12.82975,30.36298 -5.20062,10.5371 -7.39439,13.27534 -11.62032,14.50437 -2.86515,0.83329 -9.11844,3.09487 -13.89619,5.02574 -33.6742,13.60904 -36.98485,14.05261 -54.43062,7.29272 -21.43205,-8.30451 -94.95756,-45.6633 -102.38956,-52.02482 l -7.36063,-6.30044 v -17.13533 c 0,-14.46755 1.11377,-21.41156 7.15374,-44.60171 21.03744,-80.77185 32.1641,-146.17534 27.58445,-162.14365 -0.91641,-3.19531 -4.6762,-10.16352 -8.3551,-15.48491 -6.30899,-9.12571 -23.03707,-38.14679 -37.62283,-65.27085 -22.84694,-42.48677 -55.67499,-98.16102 -57.88016,-98.16102 -1.40308,0 -8.90223,3.89182 -16.66477,8.64846 -18.39794,11.27371 -23.05411,12.17135 -32.97533,6.35713 -4.23571,-2.48229 -9.542767,-6.80218 -11.793465,-9.59973 -13.428517,-16.69128 -37.970761,-55.55709 -37.970761,-60.13156 0,-1.27476 -0.721443,-2.57832 -1.603209,-2.89685 -0.881765,-0.31851 -7.179978,-11.47711 -13.996028,-24.79688 -11.013126,-21.5216 -12.267559,-24.95916 -11.267704,-30.87725 0.660824,-3.91138 2.672491,-7.74796 4.874871,-9.29718 7.074164,-4.97619 60.765588,-37.4543 67.874419,-41.05744 3.908977,-1.98128 7.498137,-4.13485 7.975907,-4.7857 0.47778,-0.65085 7.905,-5.39165 16.50495,-10.53511 35.86929,-21.45271 57.70187,-36.48525 92.62498,-63.77572 8.89954,-6.9545 17.57763,-12.64454 19.28466,-12.64454 5.36715,0 16.60134,9.57672 20.57757,17.54162 2.10051,4.20758 8.81766,23.28641 14.92702,42.3974 7.50619,23.48051 19.70417,54.74575 37.61921,96.42365 30.05908,69.93005 59.06608,140.27877 59.06608,143.24901 0,1.09701 0.97726,2.97171 2.1717,4.16601 1.19444,1.19432 4.62272,8.97336 7.61841,17.28676 3.19911,8.87795 6.41804,15.1153 7.8006,15.1153 1.29465,0 6.49831,-7.81813 11.5637,-17.37363 11.58487,-21.8541 23.59952,-39.70482 29.18869,-43.36698 3.69657,-2.42209 6.21859,-2.56752 17.72053,-1.02188 7.37582,0.99117 28.65593,2.97669 47.28915,4.41228 41.50484,3.19772 49.67319,4.11095 56.93689,6.36557 6.26365,1.94422 7.83018,4.74377 15.89104,28.39892 7.94465,23.31406 25.16329,63.41376 27.2296,63.41376 1.07117,0 3.23954,-5.23536 4.81861,-11.63413 1.57906,-6.39878 3.54091,-12.06693 4.35966,-12.59589 0.81876,-0.52895 3.26247,-4.47991 5.43047,-8.77988 17.99038,-35.68193 82.71636,-139.14892 111.79973,-178.71622 17.61546,-23.96545 34.12963,-42.10196 40.9287,-44.9495 8.47281,-3.54853 32.54726,-2.10282 45.03893,2.70467 8.07801,3.10887 9.12463,3.20261 8.17671,0.73235 -5.5994,-14.5918 -6.51132,-20.37977 -5.74647,-36.47239 2.26544,-47.66449 28.65357,-79.34261 92.54777,-111.10074 22.90239,-11.38346 49.16984,-22.29164 50.49304,-20.96843 0.4641,0.46409 -0.41768,5.45049 -1.95952,11.08088 -4.84891,17.70706 -5.18791,48.30064 -0.8612,77.72154 2.08583,14.18325 3.77027,31.77405 3.74321,39.09067 -0.12735,34.44309 -17.60481,60.43507 -48.29555,71.82387 -5.53818,2.05511 -10.7014,4.27688 -11.47379,4.93723 -0.7724,0.66038 2.35485,3.62362 6.94945,6.58501 4.59459,2.96139 10.84603,7.67449 13.89206,10.47357 l 5.53824,5.08923 -2.57546,11.05525 c -3.04576,13.07401 -16.33325,41.59432 -27.14566,58.26548 -8.25411,12.72662 -11.69039,15.17413 -43.01582,30.63828 l -14.75166,7.28231 -25.05967,37.35331 c -21.99545,32.78585 -67.92112,106.41045 -67.92112,108.88607 0,0.49504 -1.75908,3.36623 -3.90906,6.38038 l -3.90907,5.48028 -0.86868,118.14069 c -0.74035,100.68629 -1.25626,118.91075 -3.492,123.35278 -4.35828,8.65918 -27.97935,16.42297 -92.06297,30.25933 -28.45339,6.1434 -34.87508,6.49838 -43.21653,2.38901 z"
       id="path3145"
       transform="matrix(0.05882353,0,0,0.05882353,-1.9600394,-0.69146718)" /><path
       style="fill:#55ff55;fill-opacity:0;stroke-width:1.73736"
       d="m 588.31496,892.64307 c -3.22477,-1.58866 -8.53917,-6.45719 -11.80979,-10.81896 -7.00837,-9.34653 -28.32854,-52.37528 -38.79346,-78.29368 -4.05108,-10.03327 -8.8351,-20.31754 -10.63117,-22.85391 -1.79605,-2.53638 -3.26557,-5.69145 -3.26557,-7.01125 0,-1.31983 -4.18377,-12.92633 -9.29729,-25.79225 -5.11352,-12.86594 -12.21053,-31.01529 -15.77114,-40.3319 -3.56062,-9.31661 -7.15027,-16.93929 -7.97703,-16.93929 -1.60515,0 -10.07212,15.60851 -24.50363,45.17144 -4.89785,10.03327 -9.58925,18.50292 -10.42531,18.82143 -0.83607,0.31853 -1.52012,1.34826 -1.52012,2.28832 0,0.94005 -5.36868,13.97027 -11.93039,28.95605 -6.5617,14.98577 -14.81885,35.06499 -18.34919,44.62049 -3.53036,9.5555 -9.30375,23.21883 -12.82975,30.36298 -5.20062,10.5371 -7.39439,13.27534 -11.62032,14.50437 -2.86515,0.83329 -9.11844,3.09487 -13.89619,5.02574 -33.6742,13.60904 -36.98485,14.05261 -54.43062,7.29272 -21.43205,-8.30451 -94.95756,-45.6633 -102.38956,-52.02482 l -7.36063,-6.30044 v -17.13533 c 0,-14.46755 1.11377,-21.41156 7.15374,-44.60171 21.03744,-80.77185 32.1641,-146.17534 27.58445,-162.14365 -0.91641,-3.19531 -4.6762,-10.16352 -8.3551,-15.48491 -6.30899,-9.12571 -23.03707,-38.14679 -37.62283,-65.27085 -22.84694,-42.48677 -55.67499,-98.16102 -57.88016,-98.16102 -1.40308,0 -8.90223,3.89182 -16.66477,8.64846 -18.39794,11.27371 -23.05411,12.17135 -32.97533,6.35713 -4.23571,-2.48229 -9.542767,-6.80218 -11.793465,-9.59973 -13.428517,-16.69128 -37.970761,-55.55709 -37.970761,-60.13156 0,-1.27476 -0.721443,-2.57832 -1.603209,-2.89685 -0.881765,-0.31851 -7.179978,-11.47711 -13.996028,-24.79688 -11.013126,-21.5216 -12.267559,-24.95916 -11.267704,-30.87725 0.660824,-3.91138 2.672491,-7.74796 4.874871,-9.29718 7.074164,-4.97619 60.765588,-37.4543 67.874419,-41.05744 3.908977,-1.98128 7.498137,-4.13485 7.975907,-4.7857 0.47778,-0.65085 7.905,-5.39165 16.50495,-10.53511 35.86929,-21.45271 57.70187,-36.48525 92.62498,-63.77572 8.89954,-6.9545 17.57763,-12.64454 19.28466,-12.64454 5.36715,0 16.60134,9.57672 20.57757,17.54162 2.10051,4.20758 8.81766,23.28641 14.92702,42.3974 7.50619,23.48051 19.70417,54.74575 37.61921,96.42365 30.05908,69.93005 59.06608,140.27877 59.06608,143.24901 0,1.09701 0.97726,2.97171 2.1717,4.16601 1.19444,1.19432 4.62272,8.97336 7.61841,17.28676 3.19911,8.87795 6.41804,15.1153 7.8006,15.1153 1.29465,0 6.49831,-7.81813 11.5637,-17.37363 11.58487,-21.8541 23.59952,-39.70482 29.18869,-43.36698 3.69657,-2.42209 6.21859,-2.56752 17.72053,-1.02188 7.37582,0.99117 28.65593,2.97669 47.28915,4.41228 41.50484,3.19772 49.67319,4.11095 56.93689,6.36557 6.26365,1.94422 7.83018,4.74377 15.89104,28.39892 7.94465,23.31406 25.16329,63.41376 27.2296,63.41376 1.07117,0 3.23954,-5.23536 4.81861,-11.63413 1.57906,-6.39878 3.54091,-12.06693 4.35966,-12.59589 0.81876,-0.52895 3.26247,-4.47991 5.43047,-8.77988 17.99038,-35.68193 82.71636,-139.14892 111.79973,-178.71622 17.61546,-23.96545 34.12963,-42.10196 40.9287,-44.9495 8.47281,-3.54853 32.54726,-2.10282 45.03893,2.70467 8.07801,3.10887 9.12463,3.20261 8.17671,0.73235 -5.5994,-14.5918 -6.51132,-20.37977 -5.74647,-36.47239 2.26544,-47.66449 28.65357,-79.34261 92.54777,-111.10074 22.90239,-11.38346 49.16984,-22.29164 50.49304,-20.96843 0.4641,0.46409 -0.41768,5.45049 -1.95952,11.08088 -4.84891,17.70706 -5.18791,48.30064 -0.8612,77.72154 2.08583,14.18325 3.77027,31.77405 3.74321,39.09067 -0.12735,34.44309 -17.60481,60.43507 -48.29555,71.82387 -5.53818,2.05511 -10.7014,4.27688 -11.47379,4.93723 -0.7724,0.66038 2.35485,3.62362 6.94945,6.58501 4.59459,2.96139 10.84603,7.67449 13.89206,10.47357 l 5.53824,5.08923 -2.57546,11.05525 c -3.04576,13.07401 -16.33325,41.59432 -27.14566,58.26548 -8.25411,12.72662 -11.69039,15.17413 -43.01582,30.63828 l -14.75166,7.28231 -25.05967,37.35331 c -21.99545,32.78585 -67.92112,106.41045 -67.92112,108.88607 0,0.49504 -1.75908,3.36623 -3.90906,6.38038 l -3.90907,5.48028 -0.86868,118.14069 c -0.74035,100.68629 -1.25626,118.91075 -3.492,123.35278 -4.35828,8.65918 -27.97935,16.42297 -92.06297,30.25933 -28.45339,6.1434 -34.87508,6.49838 -43.21653,2.38901 z"
       id="path3147"
       transform="matrix(0.05882353,0,0,0.05882353,-1.9600394,-0.69146718)" /><path
       style="fill:#55ff55;fill-opacity:0;stroke-width:1.73736"
       d="m 588.31496,892.64307 c -3.22477,-1.58866 -8.53917,-6.45719 -11.80979,-10.81896 -7.00837,-9.34653 -28.32854,-52.37528 -38.79346,-78.29368 -4.05108,-10.03327 -8.8351,-20.31754 -10.63117,-22.85391 -1.79605,-2.53638 -3.26557,-5.69145 -3.26557,-7.01125 0,-1.31983 -4.18377,-12.92633 -9.29729,-25.79225 -5.11352,-12.86594 -12.21053,-31.01529 -15.77114,-40.3319 -3.56062,-9.31661 -7.15027,-16.93929 -7.97703,-16.93929 -1.60515,0 -10.07212,15.60851 -24.50363,45.17144 -4.89785,10.03327 -9.58925,18.50292 -10.42531,18.82143 -0.83607,0.31853 -1.52012,1.34826 -1.52012,2.28832 0,0.94005 -5.36868,13.97027 -11.93039,28.95605 -6.5617,14.98577 -14.81885,35.06499 -18.34919,44.62049 -3.53036,9.5555 -9.30375,23.21883 -12.82975,30.36298 -5.20062,10.5371 -7.39439,13.27534 -11.62032,14.50437 -2.86515,0.83329 -9.11844,3.09487 -13.89619,5.02574 -33.6742,13.60904 -36.98485,14.05261 -54.43062,7.29272 -21.43205,-8.30451 -94.95756,-45.6633 -102.38956,-52.02482 l -7.36063,-6.30044 v -17.13533 c 0,-14.46755 1.11377,-21.41156 7.15374,-44.60171 21.03744,-80.77185 32.1641,-146.17534 27.58445,-162.14365 -0.91641,-3.19531 -4.6762,-10.16352 -8.3551,-15.48491 -6.30899,-9.12571 -23.03707,-38.14679 -37.62283,-65.27085 -22.84694,-42.48677 -55.67499,-98.16102 -57.88016,-98.16102 -1.40308,0 -8.90223,3.89182 -16.66477,8.64846 -18.39794,11.27371 -23.05411,12.17135 -32.97533,6.35713 -4.23571,-2.48229 -9.542767,-6.80218 -11.793465,-9.59973 -13.428517,-16.69128 -37.970761,-55.55709 -37.970761,-60.13156 0,-1.27476 -0.721443,-2.57832 -1.603209,-2.89685 -0.881765,-0.31851 -7.179978,-11.47711 -13.996028,-24.79688 -11.013126,-21.5216 -12.267559,-24.95916 -11.267704,-30.87725 0.660824,-3.91138 2.672491,-7.74796 4.874871,-9.29718 7.074164,-4.97619 60.765588,-37.4543 67.874419,-41.05744 3.908977,-1.98128 7.498137,-4.13485 7.975907,-4.7857 0.47778,-0.65085 7.905,-5.39165 16.50495,-10.53511 35.86929,-21.45271 57.70187,-36.48525 92.62498,-63.77572 8.89954,-6.9545 17.57763,-12.64454 19.28466,-12.64454 5.36715,0 16.60134,9.57672 20.57757,17.54162 2.10051,4.20758 8.81766,23.28641 14.92702,42.3974 7.50619,23.48051 19.70417,54.74575 37.61921,96.42365 30.05908,69.93005 59.06608,140.27877 59.06608,143.24901 0,1.09701 0.97726,2.97171 2.1717,4.16601 1.19444,1.19432 4.62272,8.97336 7.61841,17.28676 3.19911,8.87795 6.41804,15.1153 7.8006,15.1153 1.29465,0 6.49831,-7.81813 11.5637,-17.37363 11.58487,-21.8541 23.59952,-39.70482 29.18869,-43.36698 3.69657,-2.42209 6.21859,-2.56752 17.72053,-1.02188 7.37582,0.99117 28.65593,2.97669 47.28915,4.41228 41.50484,3.19772 49.67319,4.11095 56.93689,6.36557 6.26365,1.94422 7.83018,4.74377 15.89104,28.39892 7.94465,23.31406 25.16329,63.41376 27.2296,63.41376 1.07117,0 3.23954,-5.23536 4.81861,-11.63413 1.57906,-6.39878 3.54091,-12.06693 4.35966,-12.59589 0.81876,-0.52895 3.26247,-4.47991 5.43047,-8.77988 17.99038,-35.68193 82.71636,-139.14892 111.79973,-178.71622 17.61546,-23.96545 34.12963,-42.10196 40.9287,-44.9495 8.47281,-3.54853 32.54726,-2.10282 45.03893,2.70467 8.07801,3.10887 9.12463,3.20261 8.17671,0.73235 -5.5994,-14.5918 -6.51132,-20.37977 -5.74647,-36.47239 2.26544,-47.66449 28.65357,-79.34261 92.54777,-111.10074 22.90239,-11.38346 49.16984,-22.29164 50.49304,-20.96843 0.4641,0.46409 -0.41768,5.45049 -1.95952,11.08088 -4.84891,17.70706 -5.18791,48.30064 -0.8612,77.72154 2.08583,14.18325 3.77027,31.77405 3.74321,39.09067 -0.12735,34.44309 -17.60481,60.43507 -48.29555,71.82387 -5.53818,2.05511 -10.7014,4.27688 -11.47379,4.93723 -0.7724,0.66038 2.35485,3.62362 6.94945,6.58501 4.59459,2.96139 10.84603,7.67449 13.89206,10.47357 l 5.53824,5.08923 -2.57546,11.05525 c -3.04576,13.07401 -16.33325,41.59432 -27.14566,58.26548 -8.25411,12.72662 -11.69039,15.17413 -43.01582,30.63828 l -14.75166,7.28231 -25.05967,37.35331 c -21.99545,32.78585 -67.92112,106.41045 -67.92112,108.88607 0,0.49504 -1.75908,3.36623 -3.90906,6.38038 l -3.90907,5.48028 -0.86868,118.14069 c -0.74035,100.68629 -1.25626,118.91075 -3.492,123.35278 -4.35828,8.65918 -27.97935,16.42297 -92.06297,30.25933 -28.45339,6.1434 -34.87508,6.49838 -43.21653,2.38901 z"
       id="path3149"
       transform="matrix(0.05882353,0,0,0.05882353,-1.9600394,-0.69146718)" /><path
       style="fill:#55ff55;fill-opacity:0;stroke-width:0.102198"
       d="M 37.01057,52.968719 C 36.820878,52.875269 36.508266,52.588885 36.315877,52.33231 35.90362,51.782514 34.649492,49.251411 34.033908,47.726799 33.79561,47.136607 33.514197,46.53165 33.408545,46.382452 c -0.10565,-0.149199 -0.192092,-0.334792 -0.192092,-0.412427 0,-0.07764 -0.246104,-0.760372 -0.546899,-1.517191 -0.300796,-0.75682 -0.718267,-1.824429 -0.927714,-2.372465 -0.209449,-0.548036 -0.420605,-0.996429 -0.469238,-0.996429 -0.09442,0 -0.592477,0.918148 -1.44139,2.657144 -0.288108,0.590192 -0.564073,1.088407 -0.613253,1.107143 -0.04918,0.01874 -0.08942,0.07931 -0.08942,0.134607 0,0.0553 -0.315805,0.82178 -0.701788,1.703297 -0.385982,0.881516 -0.871697,2.062646 -1.079364,2.624735 -0.207668,0.562088 -0.547279,1.365813 -0.754691,1.786057 -0.305919,0.61983 -0.434964,0.780903 -0.683548,0.853199 -0.168538,0.04902 -0.536379,0.182051 -0.817423,0.295631 -1.980835,0.800532 -2.17558,0.826624 -3.201801,0.428984 -1.260709,-0.488501 -5.585739,-2.686077 -6.022916,-3.060284 L 15.43403,49.243839 v -1.00796 c 0,-0.851033 0.06552,-1.259504 0.420808,-2.62363 1.237497,-4.751286 1.892006,-8.59855 1.622615,-9.537862 -0.05391,-0.18796 -0.27507,-0.597854 -0.491475,-0.910877 -0.371117,-0.536807 -1.355122,-2.243929 -2.213108,-3.839462 -1.343938,-2.499222 -3.274999,-5.774178 -3.404715,-5.774178 -0.08253,0 -0.523661,0.228931 -0.980281,0.508733 -1.0822314,0.663159 -1.3561237,0.715962 -1.9397249,0.373949 -0.2491594,-0.146017 -0.5613393,-0.400128 -0.6937333,-0.56469 -0.7899127,-0.98184 -2.2335742,-3.268064 -2.2335742,-3.537151 0,-0.07499 -0.042438,-0.151666 -0.094306,-0.170403 C 5.3746666,22.141568 5.004184,21.485184 4.6032399,20.701668 3.955409,19.435692 3.8816188,19.233482 3.9404338,18.885359 c 0.038872,-0.230081 0.1572054,-0.455762 0.2867571,-0.546892 0.4161273,-0.292718 3.5744463,-2.203195 3.9926129,-2.415144 0.2299398,-0.116546 0.4410669,-0.243226 0.469171,-0.281512 0.028105,-0.03829 0.465,-0.317156 0.9708794,-0.619712 2.1099578,-1.261924 3.3942268,-2.146191 5.4485278,-3.751513 0.523502,-0.409089 1.033978,-0.743797 1.134391,-0.743797 0.315715,0 0.97655,0.563336 1.210446,1.03186 0.123559,0.247505 0.518686,1.369789 0.87806,2.493965 0.44154,1.381207 1.159069,3.220338 2.212895,5.67198 1.768181,4.113532 3.474475,8.251692 3.474475,8.426412 0,0.06453 0.05749,0.174807 0.127747,0.245059 0.07026,0.07025 0.271925,0.527845 0.448142,1.016869 0.188183,0.522232 0.377531,0.889135 0.458858,0.889135 0.07616,0 0.382254,-0.45989 0.680218,-1.021978 0.681463,-1.285536 1.388207,-2.335578 1.716982,-2.550999 0.217445,-0.142476 0.365799,-0.151031 1.042384,-0.06011 0.433872,0.0583 1.685643,0.1751 2.781715,0.259546 2.441461,0.188101 2.921952,0.241821 3.349229,0.374446 0.36845,0.114365 0.460598,0.279045 0.934767,1.670524 0.467332,1.371416 1.480193,3.730221 1.601741,3.730221 0.06301,0 0.190561,-0.307962 0.283448,-0.68436 0.09289,-0.376399 0.208288,-0.70982 0.25645,-0.740935 0.04816,-0.03111 0.19191,-0.263524 0.31944,-0.516463 1.058257,-2.098937 4.865668,-8.185231 6.576454,-10.512719 1.036204,-1.409733 2.007626,-2.476586 2.407571,-2.644089 0.498401,-0.208737 1.914545,-0.123695 2.649349,0.159099 0.475177,0.182874 0.536743,0.188388 0.480983,0.04308 -0.329377,-0.858341 -0.383019,-1.19881 -0.338028,-2.145435 0.133261,-2.803793 1.685504,-4.667213 5.443987,-6.5353379 1.347199,-0.6696153 2.892343,-1.3112729 2.970178,-1.2334371 0.0273,0.027299 -0.02457,0.3206171 -0.115265,0.6518165 -0.28523,1.0415918 -0.305172,2.8412145 -0.05066,4.5718555 0.122696,0.834309 0.22178,1.869062 0.220189,2.299452 -0.0075,2.026064 -1.035577,3.555004 -2.840915,4.224933 -0.325775,0.120889 -0.629494,0.251581 -0.674929,0.290425 -0.04544,0.03885 0.138521,0.213155 0.408791,0.387354 0.27027,0.174199 0.638002,0.451441 0.81718,0.616092 l 0.325779,0.299367 -0.151498,0.650309 c -0.179162,0.769059 -0.960779,2.446724 -1.596803,3.427381 -0.485536,0.748625 -0.68767,0.892596 -2.530343,1.802252 l -0.867744,0.428371 -1.474098,2.197253 c -1.293851,1.92858 -3.995361,6.259439 -3.995361,6.405063 0,0.02912 -0.103475,0.198014 -0.229944,0.375317 l -0.229946,0.322369 -0.0511,6.949453 c -0.04355,5.922723 -0.0739,6.99475 -0.205412,7.256046 -0.25637,0.509363 -1.645844,0.966057 -5.415469,1.77996 -1.673729,0.361377 -2.051475,0.382258 -2.542149,0.14053 z"
       id="path3151" /><use
       id="use3269"
       inkscape:spray-origin="#path3151"
       xlink:href="#path3151"
       transform="translate(-2.9994012,-2.860268)" /><use
       id="use3271"
       inkscape:spray-origin="#path3151"
       xlink:href="#path3151"
       transform="translate(2.4880518,1.09355)" /><use
       id="use3273"
       inkscape:spray-origin="#path3151"
       xlink:href="#path3151"
       transform="translate(5.3007991,3.8030377)" /><use
       id="use3275"
       inkscape:spray-origin="#path3151"
       xlink:href="#path3151"
       transform="translate(2.5522808,6.2874255)" /><use
       id="use3277"
       inkscape:spray-origin="#path3151"
       xlink:href="#path3151"
       transform="translate(8.4763443,-1.1075312)" /><use
       id="use3279"
       inkscape:spray-origin="#path3151"
       xlink:href="#path3151"
       transform="translate(8.8270284,0.78121623)" /><use
       id="use3281"
       inkscape:spray-origin="#path3151"
       xlink:href="#path3151"
       transform="translate(2.9103024,5.059533)" /><use
       id="use3283"
       inkscape:spray-origin="#path3151"
       xlink:href="#path3151"
       transform="translate(3.8164308,3.2215952)" /></g></svg>
